<svg width="251" height="85" viewBox="0 0 251 85" fill="none" xmlns="http://www.w3.org/2000/svg">
<g filter="url(#filter0_d_4_133)">
<path d="M47.1307 33H40.9659C40.6013 31.2268 39.9633 29.669 39.0518 28.3267C38.157 26.9844 37.0632 25.8575 35.7706 24.946C34.4946 24.018 33.0777 23.322 31.5199 22.858C29.9621 22.3939 28.3381 22.1619 26.6477 22.1619C23.5653 22.1619 20.773 22.9408 18.2706 24.4986C15.7848 26.0563 13.8045 28.3516 12.3295 31.3842C10.8712 34.4169 10.142 38.1373 10.142 42.5455C10.142 46.9536 10.8712 50.674 12.3295 53.7067C13.8045 56.7393 15.7848 59.0346 18.2706 60.5923C20.773 62.1501 23.5653 62.929 26.6477 62.929C28.3381 62.929 29.9621 62.697 31.5199 62.233C33.0777 61.7689 34.4946 61.0812 35.7706 60.1697C37.0632 59.2417 38.157 58.1065 39.0518 56.7642C39.9633 55.4053 40.6013 53.8475 40.9659 52.0909H47.1307C46.6667 54.6927 45.8215 57.0211 44.5952 59.076C43.3688 61.1309 41.8442 62.8793 40.0213 64.321C38.1984 65.7462 36.1518 66.8317 33.8814 67.5774C31.6276 68.3232 29.2164 68.696 26.6477 68.696C22.3059 68.696 18.4446 67.6354 15.0639 65.5142C11.6832 63.393 9.02344 60.3769 7.08452 56.4659C5.1456 52.5549 4.17614 47.9148 4.17614 42.5455C4.17614 37.1761 5.1456 32.536 7.08452 28.625C9.02344 24.714 11.6832 21.6979 15.0639 19.5767C18.4446 17.4555 22.3059 16.3949 26.6477 16.3949C29.2164 16.3949 31.6276 16.7678 33.8814 17.5135C36.1518 18.2592 38.1984 19.353 40.0213 20.7947C41.8442 22.2199 43.3688 23.96 44.5952 26.0149C45.8215 28.0533 46.6667 30.3816 47.1307 33ZM84.9334 29.8182C84.6351 27.2992 83.4254 25.3438 81.3042 23.9517C79.1829 22.5597 76.5811 21.8636 73.4988 21.8636C71.245 21.8636 69.2729 22.2282 67.5826 22.9574C65.9088 23.6866 64.5996 24.6892 63.655 25.9652C62.727 27.2412 62.263 28.6913 62.263 30.3153C62.263 31.6742 62.5861 32.8426 63.2324 33.8203C63.8953 34.7815 64.7405 35.5852 65.7679 36.2315C66.7954 36.8613 67.8726 37.3833 68.9995 37.7976C70.1264 38.1953 71.1621 38.5185 72.1067 38.767L77.2772 40.1591C78.6029 40.5071 80.0778 40.9877 81.7019 41.6009C83.3425 42.214 84.9086 43.0509 86.4 44.1115C87.9081 45.1555 89.151 46.4979 90.1287 48.1385C91.1065 49.7791 91.5953 51.7926 91.5953 54.179C91.5953 56.9299 90.8745 59.4157 89.4327 61.6364C88.0075 63.857 85.9194 65.6219 83.1685 66.9311C80.4341 68.2403 77.1114 68.8949 73.2005 68.8949C69.5546 68.8949 66.3977 68.3066 63.7296 67.13C61.0781 65.9534 58.99 64.3127 57.4654 62.2081C55.9573 60.1035 55.1039 57.6591 54.905 54.875H61.2686C61.4344 56.7973 62.0807 58.3883 63.2076 59.6477C64.351 60.8906 65.7928 61.8187 67.5328 62.4318C69.2895 63.0284 71.1787 63.3267 73.2005 63.3267C75.5537 63.3267 77.6666 62.9455 79.5392 62.1832C81.4119 61.4044 82.8951 60.3272 83.9888 58.9517C85.0826 57.5597 85.6294 55.9356 85.6294 54.0795C85.6294 52.3892 85.1571 51.0137 84.2125 49.9531C83.2679 48.8925 82.025 48.0308 80.4838 47.3679C78.9427 46.705 77.2772 46.125 75.4874 45.6278L69.2232 43.8381C65.2459 42.6946 62.0972 41.0623 59.7772 38.9411C57.4571 36.8198 56.2971 34.044 56.2971 30.6136C56.2971 27.7633 57.0676 25.2775 58.6088 23.1562C60.1666 21.0185 62.2547 19.3613 64.873 18.1847C67.508 16.9915 70.4495 16.3949 73.6976 16.3949C76.9789 16.3949 79.8955 16.9832 82.4476 18.1598C84.9997 19.3198 87.0215 20.9107 88.513 22.9325C90.021 24.9543 90.8165 27.2495 90.8993 29.8182H84.9334ZM101.731 17.0909H109.089L126.39 59.3494H126.987L144.288 17.0909H151.646V68H145.879V29.321H145.382L129.473 68H123.904L107.995 29.321H107.498V68H101.731V17.0909Z" fill="black"/>
</g>
<path d="M180.099 23.5H178.778C178.7 23.12 178.564 22.7862 178.368 22.4986C178.176 22.2109 177.942 21.9695 177.665 21.7741C177.392 21.5753 177.088 21.4261 176.754 21.3267C176.42 21.2273 176.072 21.1776 175.71 21.1776C175.05 21.1776 174.451 21.3445 173.915 21.6783C173.382 22.0121 172.958 22.5039 172.642 23.1538C172.33 23.8036 172.173 24.6009 172.173 25.5455C172.173 26.4901 172.33 27.2873 172.642 27.9371C172.958 28.587 173.382 29.0788 173.915 29.4126C174.451 29.7464 175.05 29.9134 175.71 29.9134C176.072 29.9134 176.42 29.8636 176.754 29.7642C177.088 29.6648 177.392 29.5174 177.665 29.3221C177.942 29.1232 178.176 28.88 178.368 28.5923C178.564 28.3011 178.7 27.9673 178.778 27.5909H180.099C180 28.1484 179.819 28.6474 179.556 29.0877C179.293 29.5281 178.967 29.9027 178.576 30.2116C178.185 30.517 177.747 30.7496 177.26 30.9094C176.777 31.0692 176.261 31.1491 175.71 31.1491C174.78 31.1491 173.952 30.9219 173.228 30.4673C172.504 30.0128 171.934 29.3665 171.518 28.5284C171.103 27.6903 170.895 26.696 170.895 25.5455C170.895 24.3949 171.103 23.4006 171.518 22.5625C171.934 21.7244 172.504 21.0781 173.228 20.6236C173.952 20.169 174.78 19.9418 175.71 19.9418C176.261 19.9418 176.777 20.0217 177.26 20.1815C177.747 20.3413 178.185 20.5756 178.576 20.8846C178.967 21.19 179.293 21.5629 179.556 22.0032C179.819 22.44 180 22.9389 180.099 23.5ZM185.388 31.1705C184.649 31.1705 184.001 30.9947 183.443 30.6431C182.889 30.2915 182.456 29.7997 182.144 29.1676C181.835 28.5355 181.68 27.7969 181.68 26.9517C181.68 26.0994 181.835 25.3555 182.144 24.7198C182.456 24.0842 182.889 23.5906 183.443 23.239C184.001 22.8874 184.649 22.7116 185.388 22.7116C186.126 22.7116 186.772 22.8874 187.326 23.239C187.884 23.5906 188.317 24.0842 188.626 24.7198C188.939 25.3555 189.095 26.0994 189.095 26.9517C189.095 27.7969 188.939 28.5355 188.626 29.1676C188.317 29.7997 187.884 30.2915 187.326 30.6431C186.772 30.9947 186.126 31.1705 185.388 31.1705ZM185.388 30.0412C185.949 30.0412 186.41 29.8974 186.772 29.6097C187.135 29.3221 187.403 28.9439 187.577 28.4751C187.751 28.0064 187.838 27.4986 187.838 26.9517C187.838 26.4048 187.751 25.8952 187.577 25.4229C187.403 24.9506 187.135 24.5689 186.772 24.2777C186.41 23.9865 185.949 23.8409 185.388 23.8409C184.826 23.8409 184.365 23.9865 184.003 24.2777C183.64 24.5689 183.372 24.9506 183.198 25.4229C183.024 25.8952 182.937 26.4048 182.937 26.9517C182.937 27.4986 183.024 28.0064 183.198 28.4751C183.372 28.9439 183.64 29.3221 184.003 29.6097C184.365 29.8974 184.826 30.0412 185.388 30.0412ZM191.014 31V22.8182H192.228V24.0966H192.335C192.505 23.6598 192.781 23.3207 193.161 23.0792C193.54 22.8342 193.997 22.7116 194.529 22.7116C195.069 22.7116 195.518 22.8342 195.877 23.0792C196.239 23.3207 196.522 23.6598 196.724 24.0966H196.809C197.019 23.674 197.333 23.3384 197.752 23.0898C198.171 22.8377 198.674 22.7116 199.26 22.7116C199.991 22.7116 200.589 22.9407 201.055 23.3988C201.52 23.8533 201.752 24.5618 201.752 25.5241V31H200.495V25.5241C200.495 24.9205 200.33 24.489 200 24.2298C199.67 23.9705 199.281 23.8409 198.833 23.8409C198.258 23.8409 197.813 24.0149 197.496 24.3629C197.18 24.7074 197.022 25.1442 197.022 25.6733V31H195.744V25.3963C195.744 24.9311 195.593 24.5565 195.291 24.2724C194.989 23.9847 194.6 23.8409 194.125 23.8409C193.798 23.8409 193.493 23.9279 193.208 24.1019C192.928 24.2759 192.701 24.5174 192.527 24.8263C192.356 25.1317 192.271 25.4851 192.271 25.8864V31H191.014ZM204.051 31V22.8182H205.265V24.0966H205.372C205.542 23.6598 205.818 23.3207 206.198 23.0792C206.578 22.8342 207.034 22.7116 207.567 22.7116C208.106 22.7116 208.556 22.8342 208.914 23.0792C209.276 23.3207 209.559 23.6598 209.761 24.0966H209.846C210.056 23.674 210.37 23.3384 210.789 23.0898C211.208 22.8377 211.711 22.7116 212.297 22.7116C213.028 22.7116 213.627 22.9407 214.092 23.3988C214.557 23.8533 214.79 24.5618 214.79 25.5241V31H213.532V25.5241C213.532 24.9205 213.367 24.489 213.037 24.2298C212.707 23.9705 212.318 23.8409 211.871 23.8409C211.295 23.8409 210.85 24.0149 210.534 24.3629C210.218 24.7074 210.059 25.1442 210.059 25.6733V31H208.781V25.3963C208.781 24.9311 208.63 24.5565 208.328 24.2724C208.026 23.9847 207.638 23.8409 207.162 23.8409C206.835 23.8409 206.53 23.9279 206.246 24.1019C205.965 24.2759 205.738 24.5174 205.564 24.8263C205.393 25.1317 205.308 25.4851 205.308 25.8864V31H204.051ZM222.244 27.6548V22.8182H223.501V31H222.244V29.6151H222.159C221.967 30.0305 221.669 30.3839 221.264 30.6751C220.859 30.9627 220.348 31.1065 219.73 31.1065C219.219 31.1065 218.764 30.9947 218.366 30.771C217.969 30.5437 217.656 30.2028 217.429 29.7482C217.202 29.2901 217.088 28.7131 217.088 28.017V22.8182H218.345V27.9318C218.345 28.5284 218.512 29.0043 218.846 29.3594C219.183 29.7145 219.613 29.892 220.135 29.892C220.447 29.892 220.765 29.8121 221.088 29.6523C221.415 29.4925 221.689 29.2475 221.909 28.9173C222.132 28.587 222.244 28.1662 222.244 27.6548ZM227.061 26.0781V31H225.804V22.8182H227.018V24.0966H227.125C227.317 23.6811 227.608 23.3473 227.998 23.0952C228.389 22.8395 228.893 22.7116 229.511 22.7116C230.065 22.7116 230.55 22.8253 230.965 23.0526C231.381 23.2763 231.704 23.6172 231.935 24.0753C232.166 24.5298 232.281 25.1051 232.281 25.8011V31H231.024V25.8864C231.024 25.2436 230.857 24.7429 230.523 24.3842C230.19 24.022 229.731 23.8409 229.149 23.8409C228.748 23.8409 228.389 23.9279 228.073 24.1019C227.761 24.2759 227.514 24.5298 227.333 24.8636C227.152 25.1974 227.061 25.6023 227.061 26.0781ZM234.578 31V22.8182H235.835V31H234.578ZM235.218 21.4545C234.972 21.4545 234.761 21.3711 234.584 21.2042C234.41 21.0373 234.323 20.8366 234.323 20.6023C234.323 20.3679 234.41 20.1673 234.584 20.0004C234.761 19.8335 234.972 19.75 235.218 19.75C235.463 19.75 235.672 19.8335 235.846 20.0004C236.024 20.1673 236.112 20.3679 236.112 20.6023C236.112 20.8366 236.024 21.0373 235.846 21.2042C235.672 21.3711 235.463 21.4545 235.218 21.4545ZM241.696 22.8182V23.8835H237.456V22.8182H241.696ZM238.692 20.858H239.949V28.6562C239.949 29.0114 240 29.2777 240.103 29.4553C240.21 29.6293 240.345 29.7464 240.508 29.8068C240.675 29.8636 240.851 29.892 241.036 29.892C241.174 29.892 241.288 29.8849 241.377 29.8707C241.465 29.853 241.536 29.8388 241.59 29.8281L241.845 30.9574C241.76 30.9893 241.641 31.0213 241.488 31.0533C241.336 31.0888 241.142 31.1065 240.908 31.1065C240.553 31.1065 240.205 31.0302 239.864 30.8775C239.526 30.7248 239.246 30.4922 239.022 30.1797C238.802 29.8672 238.692 29.473 238.692 28.9972V20.858ZM244.397 34.0682C244.184 34.0682 243.994 34.0504 243.827 34.0149C243.66 33.983 243.544 33.951 243.481 33.919L243.8 32.8111C244.106 32.8892 244.375 32.9176 244.61 32.8963C244.844 32.875 245.052 32.7702 245.233 32.582C245.418 32.3974 245.586 32.0973 245.739 31.6818L245.973 31.0426L242.948 22.8182H244.312L246.57 29.3381H246.655L248.914 22.8182H250.277L246.804 32.1932C246.648 32.6158 246.455 32.9656 246.224 33.2425C245.993 33.5231 245.725 33.7308 245.419 33.8658C245.118 34.0007 244.777 34.0682 244.397 34.0682Z" fill="#2E9387"/>
<path d="M177.287 40.8182C177.223 40.2784 176.964 39.8594 176.509 39.5611C176.055 39.2628 175.497 39.1136 174.837 39.1136C174.354 39.1136 173.931 39.1918 173.569 39.348C173.21 39.5043 172.93 39.7191 172.727 39.9925C172.528 40.266 172.429 40.5767 172.429 40.9247C172.429 41.2159 172.498 41.4663 172.637 41.6758C172.779 41.8817 172.96 42.054 173.18 42.1925C173.4 42.3274 173.631 42.4393 173.873 42.5281C174.114 42.6133 174.336 42.6825 174.538 42.7358L175.646 43.0341C175.93 43.1087 176.246 43.2116 176.594 43.343C176.946 43.4744 177.282 43.6538 177.601 43.881C177.924 44.1048 178.191 44.3924 178.4 44.744C178.61 45.0955 178.714 45.527 178.714 46.0384C178.714 46.6278 178.56 47.1605 178.251 47.6364C177.946 48.1122 177.498 48.4904 176.909 48.771C176.323 49.0515 175.611 49.1918 174.773 49.1918C173.991 49.1918 173.315 49.0657 172.743 48.8136C172.175 48.5614 171.728 48.2099 171.401 47.7589C171.078 47.3079 170.895 46.7841 170.852 46.1875H172.216C172.251 46.5994 172.39 46.9403 172.631 47.2102C172.876 47.4766 173.185 47.6754 173.558 47.8068C173.935 47.9347 174.339 47.9986 174.773 47.9986C175.277 47.9986 175.73 47.9169 176.131 47.7536C176.532 47.5866 176.85 47.3558 177.085 47.0611C177.319 46.7628 177.436 46.4148 177.436 46.017C177.436 45.6548 177.335 45.3601 177.132 45.1328C176.93 44.9055 176.664 44.7209 176.333 44.5788C176.003 44.4368 175.646 44.3125 175.263 44.206L173.92 43.8224C173.068 43.5774 172.393 43.2276 171.896 42.7731C171.399 42.3185 171.151 41.7237 171.151 40.9886C171.151 40.3778 171.316 39.8452 171.646 39.3906C171.98 38.9325 172.427 38.5774 172.988 38.3253C173.553 38.0696 174.183 37.9418 174.879 37.9418C175.582 37.9418 176.207 38.0678 176.754 38.32C177.301 38.5685 177.734 38.9094 178.054 39.3427C178.377 39.7759 178.548 40.2678 178.565 40.8182H177.287ZM184.04 49.1705C183.273 49.1705 182.612 48.9893 182.058 48.6271C181.504 48.2649 181.078 47.766 180.78 47.1303C180.482 46.4947 180.332 45.7685 180.332 44.9517C180.332 44.1207 180.485 43.3874 180.791 42.7518C181.1 42.1126 181.529 41.6136 182.08 41.255C182.634 40.8928 183.28 40.7116 184.019 40.7116C184.594 40.7116 185.112 40.8182 185.574 41.0312C186.036 41.2443 186.414 41.5426 186.709 41.9261C187.003 42.3097 187.186 42.7571 187.257 43.2685H186C185.904 42.8956 185.691 42.5653 185.361 42.2777C185.034 41.9865 184.594 41.8409 184.04 41.8409C183.55 41.8409 183.12 41.9687 182.751 42.2244C182.385 42.4766 182.099 42.8335 181.893 43.2951C181.691 43.7532 181.59 44.2912 181.59 44.9091C181.59 45.5412 181.689 46.0916 181.888 46.5604C182.09 47.0291 182.374 47.3931 182.74 47.6523C183.109 47.9116 183.543 48.0412 184.04 48.0412C184.367 48.0412 184.663 47.9844 184.929 47.8707C185.196 47.7571 185.421 47.5938 185.606 47.3807C185.791 47.1676 185.922 46.9119 186 46.6136H187.257C187.186 47.0966 187.01 47.5316 186.73 47.9187C186.453 48.3022 186.085 48.6076 185.627 48.8349C185.173 49.0586 184.644 49.1705 184.04 49.1705ZM189.095 49V40.8182H190.352V49H189.095ZM189.734 39.4545C189.489 39.4545 189.278 39.3711 189.1 39.2042C188.926 39.0373 188.839 38.8366 188.839 38.6023C188.839 38.3679 188.926 38.1673 189.1 38.0004C189.278 37.8335 189.489 37.75 189.734 37.75C189.979 37.75 190.189 37.8335 190.363 38.0004C190.54 38.1673 190.629 38.3679 190.629 38.6023C190.629 38.8366 190.54 39.0373 190.363 39.2042C190.189 39.3711 189.979 39.4545 189.734 39.4545ZM196.085 49.1705C195.297 49.1705 194.616 48.9964 194.045 48.6484C193.477 48.2969 193.038 47.8068 192.729 47.1783C192.424 46.5462 192.271 45.8111 192.271 44.973C192.271 44.1349 192.424 43.3963 192.729 42.7571C193.038 42.1143 193.468 41.6136 194.018 41.255C194.572 40.8928 195.218 40.7116 195.957 40.7116C196.383 40.7116 196.804 40.7827 197.219 40.9247C197.635 41.0668 198.013 41.2976 198.354 41.6172C198.695 41.9332 198.967 42.3523 199.169 42.8743C199.371 43.3963 199.473 44.0391 199.473 44.8026V45.3352H193.166V44.2486H198.194C198.194 43.7869 198.102 43.375 197.917 43.0128C197.736 42.6506 197.477 42.3647 197.14 42.1552C196.806 41.9457 196.412 41.8409 195.957 41.8409C195.456 41.8409 195.023 41.9652 194.657 42.2138C194.295 42.4588 194.016 42.7784 193.821 43.1726C193.626 43.5668 193.528 43.9893 193.528 44.4403V45.1648C193.528 45.7827 193.635 46.3065 193.848 46.7362C194.064 47.1623 194.364 47.4872 194.748 47.7109C195.131 47.9311 195.577 48.0412 196.085 48.0412C196.415 48.0412 196.713 47.995 196.98 47.9027C197.25 47.8068 197.482 47.6648 197.678 47.4766C197.873 47.2848 198.024 47.0469 198.13 46.7628L199.345 47.1037C199.217 47.5156 199.002 47.8778 198.7 48.1903C198.398 48.4993 198.026 48.7408 197.582 48.9148C197.138 49.0852 196.639 49.1705 196.085 49.1705ZM202.642 44.0781V49H201.385V40.8182H202.599V42.0966H202.706C202.898 41.6811 203.189 41.3473 203.58 41.0952C203.97 40.8395 204.474 40.7116 205.092 40.7116C205.646 40.7116 206.131 40.8253 206.547 41.0526C206.962 41.2763 207.285 41.6172 207.516 42.0753C207.747 42.5298 207.862 43.1051 207.862 43.8011V49H206.605V43.8864C206.605 43.2436 206.438 42.7429 206.104 42.3842C205.771 42.022 205.313 41.8409 204.73 41.8409C204.329 41.8409 203.97 41.9279 203.654 42.1019C203.342 42.2759 203.095 42.5298 202.914 42.8636C202.733 43.1974 202.642 43.6023 202.642 44.0781ZM213.483 49.1705C212.716 49.1705 212.056 48.9893 211.502 48.6271C210.948 48.2649 210.522 47.766 210.223 47.1303C209.925 46.4947 209.776 45.7685 209.776 44.9517C209.776 44.1207 209.929 43.3874 210.234 42.7518C210.543 42.1126 210.973 41.6136 211.523 41.255C212.077 40.8928 212.723 40.7116 213.462 40.7116C214.037 40.7116 214.556 40.8182 215.017 41.0312C215.479 41.2443 215.857 41.5426 216.152 41.9261C216.447 42.3097 216.63 42.7571 216.701 43.2685H215.443C215.348 42.8956 215.134 42.5653 214.804 42.2777C214.478 41.9865 214.037 41.8409 213.483 41.8409C212.993 41.8409 212.563 41.9687 212.194 42.2244C211.828 42.4766 211.543 42.8335 211.337 43.2951C211.134 43.7532 211.033 44.2912 211.033 44.9091C211.033 45.5412 211.132 46.0916 211.331 46.5604C211.534 47.0291 211.818 47.3931 212.184 47.6523C212.553 47.9116 212.986 48.0412 213.483 48.0412C213.81 48.0412 214.106 47.9844 214.373 47.8707C214.639 47.7571 214.865 47.5938 215.049 47.3807C215.234 47.1676 215.365 46.9119 215.443 46.6136H216.701C216.63 47.0966 216.454 47.5316 216.173 47.9187C215.896 48.3022 215.529 48.6076 215.071 48.8349C214.616 49.0586 214.087 49.1705 213.483 49.1705ZM221.969 49.1705C221.18 49.1705 220.5 48.9964 219.929 48.6484C219.36 48.2969 218.922 47.8068 218.613 47.1783C218.307 46.5462 218.155 45.8111 218.155 44.973C218.155 44.1349 218.307 43.3963 218.613 42.7571C218.922 42.1143 219.351 41.6136 219.902 41.255C220.456 40.8928 221.102 40.7116 221.841 40.7116C222.267 40.7116 222.688 40.7827 223.103 40.9247C223.519 41.0668 223.897 41.2976 224.238 41.6172C224.579 41.9332 224.85 42.3523 225.053 42.8743C225.255 43.3963 225.356 44.0391 225.356 44.8026V45.3352H219.05V44.2486H224.078C224.078 43.7869 223.986 43.375 223.801 43.0128C223.62 42.6506 223.361 42.3647 223.023 42.1552C222.69 41.9457 222.295 41.8409 221.841 41.8409C221.34 41.8409 220.907 41.9652 220.541 42.2138C220.179 42.4588 219.9 42.7784 219.705 43.1726C219.509 43.5668 219.412 43.9893 219.412 44.4403V45.1648C219.412 45.7827 219.518 46.3065 219.731 46.7362C219.948 47.1623 220.248 47.4872 220.632 47.7109C221.015 47.9311 221.461 48.0412 221.969 48.0412C222.299 48.0412 222.597 47.995 222.864 47.9027C223.133 47.8068 223.366 47.6648 223.561 47.4766C223.757 47.2848 223.908 47.0469 224.014 46.7628L225.229 47.1037C225.101 47.5156 224.886 47.8778 224.584 48.1903C224.282 48.4993 223.909 48.7408 223.465 48.9148C223.022 49.0852 222.523 49.1705 221.969 49.1705Z" fill="#2E9387"/>
<path d="M171.321 56.0909H172.898L176.605 65.1463H176.733L180.44 56.0909H182.017V67H180.781V58.7116H180.675L177.266 67H176.072L172.663 58.7116H172.557V67H171.321V56.0909ZM189.652 63.6548V58.8182H190.909V67H189.652V65.6151H189.566C189.375 66.0305 189.076 66.3839 188.671 66.6751C188.267 66.9627 187.755 67.1065 187.137 67.1065C186.626 67.1065 186.171 66.9947 185.774 66.771C185.376 66.5437 185.063 66.2028 184.836 65.7482C184.609 65.2901 184.495 64.7131 184.495 64.017V58.8182H185.752V63.9318C185.752 64.5284 185.919 65.0043 186.253 65.3594C186.59 65.7145 187.02 65.892 187.542 65.892C187.855 65.892 188.172 65.8121 188.496 65.6523C188.822 65.4925 189.096 65.2475 189.316 64.9173C189.54 64.587 189.652 64.1662 189.652 63.6548ZM199.007 60.6506L197.877 60.9702C197.806 60.782 197.702 60.5991 197.563 60.4215C197.428 60.2404 197.243 60.0913 197.009 59.9741C196.775 59.8569 196.475 59.7983 196.109 59.7983C195.608 59.7983 195.191 59.9137 194.857 60.1445C194.527 60.3718 194.362 60.6612 194.362 61.0128C194.362 61.3253 194.475 61.5721 194.703 61.7532C194.93 61.9343 195.285 62.0852 195.768 62.206L196.982 62.5043C197.714 62.6818 198.259 62.9535 198.618 63.3192C198.976 63.6815 199.156 64.1484 199.156 64.7202C199.156 65.1889 199.021 65.608 198.751 65.9773C198.485 66.3466 198.112 66.6378 197.632 66.8509C197.153 67.0639 196.595 67.1705 195.96 67.1705C195.125 67.1705 194.434 66.9893 193.888 66.6271C193.341 66.2649 192.994 65.7358 192.849 65.0398L194.042 64.7415C194.156 65.1818 194.371 65.5121 194.687 65.7322C195.006 65.9524 195.423 66.0625 195.938 66.0625C196.524 66.0625 196.99 65.9382 197.334 65.6896C197.682 65.4375 197.856 65.1357 197.856 64.7841C197.856 64.5 197.757 64.2621 197.558 64.0703C197.359 63.875 197.053 63.7294 196.642 63.6335L195.278 63.3139C194.529 63.1364 193.978 62.8612 193.627 62.4883C193.279 62.1119 193.105 61.6413 193.105 61.0767C193.105 60.6151 193.234 60.2067 193.493 59.8516C193.756 59.4964 194.113 59.2177 194.564 59.0153C195.019 58.8129 195.534 58.7116 196.109 58.7116C196.919 58.7116 197.554 58.8892 198.016 59.2443C198.481 59.5994 198.811 60.0682 199.007 60.6506ZM204.478 67.1705C203.69 67.1705 203.01 66.9964 202.438 66.6484C201.87 66.2969 201.432 65.8068 201.123 65.1783C200.817 64.5462 200.665 63.8111 200.665 62.973C200.665 62.1349 200.817 61.3963 201.123 60.7571C201.432 60.1143 201.861 59.6136 202.412 59.255C202.966 58.8928 203.612 58.7116 204.351 58.7116C204.777 58.7116 205.198 58.7827 205.613 58.9247C206.028 59.0668 206.407 59.2976 206.748 59.6172C207.089 59.9332 207.36 60.3523 207.563 60.8743C207.765 61.3963 207.866 62.0391 207.866 62.8026V63.3352H201.559V62.2486H206.588C206.588 61.7869 206.495 61.375 206.311 61.0128C206.13 60.6506 205.87 60.3647 205.533 60.1552C205.199 59.9457 204.805 59.8409 204.351 59.8409C203.85 59.8409 203.417 59.9652 203.051 60.2138C202.689 60.4588 202.41 60.7784 202.215 61.1726C202.019 61.5668 201.922 61.9893 201.922 62.4403V63.1648C201.922 63.7827 202.028 64.3065 202.241 64.7362C202.458 65.1623 202.758 65.4872 203.141 65.7109C203.525 65.9311 203.971 66.0412 204.478 66.0412C204.809 66.0412 205.107 65.995 205.373 65.9027C205.643 65.8068 205.876 65.6648 206.071 65.4766C206.266 65.2848 206.417 65.0469 206.524 64.7628L207.738 65.1037C207.611 65.5156 207.396 65.8778 207.094 66.1903C206.792 66.4993 206.419 66.7408 205.975 66.9148C205.531 67.0852 205.032 67.1705 204.478 67.1705ZM214.935 63.6548V58.8182H216.192V67H214.935V65.6151H214.85C214.658 66.0305 214.359 66.3839 213.955 66.6751C213.55 66.9627 213.038 67.1065 212.421 67.1065C211.909 67.1065 211.455 66.9947 211.057 66.771C210.659 66.5437 210.347 66.2028 210.119 65.7482C209.892 65.2901 209.778 64.7131 209.778 64.017V58.8182H211.036V63.9318C211.036 64.5284 211.203 65.0043 211.536 65.3594C211.874 65.7145 212.303 65.892 212.825 65.892C213.138 65.892 213.456 65.8121 213.779 65.6523C214.106 65.4925 214.379 65.2475 214.599 64.9173C214.823 64.587 214.935 64.1662 214.935 63.6548ZM218.494 67V58.8182H219.709V60.0966H219.815C219.986 59.6598 220.261 59.3207 220.641 59.0792C221.021 58.8342 221.477 58.7116 222.01 58.7116C222.55 58.7116 222.999 58.8342 223.358 59.0792C223.72 59.3207 224.002 59.6598 224.205 60.0966H224.29C224.499 59.674 224.814 59.3384 225.233 59.0898C225.652 58.8377 226.154 58.7116 226.74 58.7116C227.472 58.7116 228.07 58.9407 228.535 59.3988C229 59.8533 229.233 60.5618 229.233 61.5241V67H227.976V61.5241C227.976 60.9205 227.811 60.489 227.48 60.2298C227.15 59.9705 226.761 59.8409 226.314 59.8409C225.739 59.8409 225.293 60.0149 224.977 60.3629C224.661 60.7074 224.503 61.1442 224.503 61.6733V67H223.224V61.3963C223.224 60.9311 223.074 60.5565 222.772 60.2724C222.47 59.9847 222.081 59.8409 221.605 59.8409C221.278 59.8409 220.973 59.9279 220.689 60.1019C220.408 60.2759 220.181 60.5174 220.007 60.8263C219.837 61.1317 219.751 61.4851 219.751 61.8864V67H218.494Z" fill="#2E9387"/>
<defs>
<filter id="filter0_d_4_133" x="0.176136" y="16.3949" width="155.47" height="60.5" filterUnits="userSpaceOnUse" color-interpolation-filters="sRGB">
<feFlood flood-opacity="0" result="BackgroundImageFix"/>
<feColorMatrix in="SourceAlpha" type="matrix" values="0 0 0 0 0 0 0 0 0 0 0 0 0 0 0 0 0 0 127 0" result="hardAlpha"/>
<feOffset dy="4"/>
<feGaussianBlur stdDeviation="2"/>
<feComposite in2="hardAlpha" operator="out"/>
<feColorMatrix type="matrix" values="0 0 0 0 0 0 0 0 0 0 0 0 0 0 0 0 0 0 0.25 0"/>
<feBlend mode="normal" in2="BackgroundImageFix" result="effect1_dropShadow_4_133"/>
<feBlend mode="normal" in="SourceGraphic" in2="effect1_dropShadow_4_133" result="shape"/>
</filter>
</defs>
</svg>
